<?xml version="1.0" standalone="no"?>
<!DOCTYPE svg PUBLIC "-//W3C//DTD SVG 20010904//EN"
 "http://www.w3.org/TR/2001/REC-SVG-20010904/DTD/svg10.dtd">
<svg version="1.0" xmlns="http://www.w3.org/2000/svg"
 width="3520.000000pt" height="2026.000000pt" viewBox="0 0 3520.000000 2026.000000"
 preserveAspectRatio="xMidYMid meet">

<g transform="translate(0.000000,2026.000000) scale(0.100000,-0.100000)"
fill="#000000" stroke="none">
<path d="M23579 19857 c-162 -67 -486 -352 -654 -576 -30 -39 -74 -112 -99
-162 -56 -110 -59 -155 -21 -321 39 -172 55 -314 62 -543 7 -260 -8 -378 -72
-570 -74 -221 -211 -529 -246 -550 -17 -11 -111 68 -326 277 -284 276 -457
417 -739 604 -430 284 -1151 642 -1689 839 -638 233 -1394 388 -2058 421
l-137 7 0 -2236 c0 -1231 2 -2237 5 -2237 3 0 47 36 97 81 318 281 398 290
611 70 51 -53 151 -166 222 -251 195 -233 379 -443 487 -557 138 -146 213
-262 365 -568 125 -253 229 -405 438 -645 65 -74 216 -252 335 -395 260 -311
366 -430 685 -765 286 -300 370 -393 432 -476 l46 -62 304 -116 304 -116 152
0 c106 0 184 6 258 20 59 10 183 25 276 31 152 11 180 11 264 -5 108 -20 175
-41 204 -66 11 -9 47 -27 80 -39 141 -52 209 -103 407 -304 218 -220 324 -363
356 -478 5 -20 33 -71 61 -113 29 -42 92 -152 140 -244 158 -301 258 -442 440
-622 173 -172 300 -254 511 -333 133 -50 227 -66 429 -77 231 -12 774 -12 977
0 196 12 287 34 524 125 319 123 391 168 565 346 325 334 477 566 546 838 11
41 26 145 35 230 9 86 20 158 25 161 27 18 -188 530 -246 585 -12 11 -72 95
-133 187 -184 275 -288 387 -480 518 -173 117 -204 176 -237 446 -28 226 -56
312 -118 358 -44 33 -140 33 -267 1 -158 -40 -219 -43 -315 -13 -44 14 -105
31 -135 38 -111 26 -133 50 -150 170 -16 111 -35 133 -127 145 -75 10 -118 46
-178 146 -57 98 -129 171 -191 195 -56 21 -159 15 -235 -15 -70 -27 -189 -98
-305 -184 -190 -139 -235 -140 -247 -7 -11 121 -93 393 -239 793 -166 457
-341 873 -548 1307 -144 301 -228 495 -263 605 -94 301 -127 809 -127 1986 l0
657 58 43 c31 24 78 63 105 87 69 65 62 96 -26 108 -137 19 -142 88 -16 232
21 24 48 64 60 88 19 40 20 50 10 108 -6 34 -11 95 -11 134 0 135 -33 212 -90
212 -10 0 -29 9 -44 21 -43 34 -37 90 24 206 40 75 50 105 50 142 -1 96 -67
124 -181 78z"/>
</g>
</svg>
