<?xml version="1.0" standalone="no"?>
<!DOCTYPE svg PUBLIC "-//W3C//DTD SVG 20010904//EN"
 "http://www.w3.org/TR/2001/REC-SVG-20010904/DTD/svg10.dtd">
<svg version="1.0" xmlns="http://www.w3.org/2000/svg"
 width="3525.000000pt" height="2029.000000pt" viewBox="0 0 3525.000000 2029.000000"
 preserveAspectRatio="xMidYMid meet">

<g transform="translate(0.000000,2029.000000) scale(0.100000,-0.100000)"
fill="#000000" stroke="none">
<path d="M23769 18997 c-162 -67 -486 -352 -654 -576 -30 -39 -74 -112 -99
-162 -56 -110 -59 -155 -21 -321 39 -172 55 -314 62 -543 7 -260 -8 -378 -72
-570 -74 -221 -211 -529 -246 -550 -17 -11 -111 68 -326 277 -284 276 -457
417 -739 604 -430 284 -1151 642 -1689 839 -550 201 -1160 338 -1771 399 -378
38 -739 42 -1214 15 -503 -28 -652 -68 -1078 -285 -285 -145 -278 -143 -482
-94 -294 72 -478 85 -720 50 -269 -38 -499 -88 -666 -145 -90 -31 -170 -49
-445 -99 -339 -62 -636 -231 -861 -490 -40 -46 -116 -138 -168 -204 l-95 -121
-217 -1 c-241 0 -336 -10 -441 -45 -119 -40 -307 -158 -307 -193 0 -23 76 -90
266 -233 182 -136 354 -293 449 -410 49 -59 56 -72 44 -83 -8 -7 -113 -98
-234 -202 -121 -104 -280 -245 -355 -314 -326 -301 -905 -890 -1190 -1210
-371 -417 -685 -884 -1185 -1760 -115 -201 -281 -486 -370 -635 -276 -460
-381 -660 -573 -1085 -123 -273 -155 -373 -173 -535 -20 -176 9 -453 58 -565
39 -88 115 -206 161 -250 76 -72 89 -93 94 -146 5 -55 34 -101 239 -390 165
-231 337 -496 481 -739 321 -540 511 -843 819 -1305 251 -377 494 -725 778
-1115 532 -731 1224 -1819 1410 -2217 97 -206 307 -750 416 -1073 53 -159 69
-260 40 -271 -25 -10 -69 15 -175 101 -170 138 -247 178 -268 139 -17 -34 -22
-118 -12 -208 27 -229 70 -322 303 -655 148 -211 324 -541 427 -802 82 -209
85 -225 85 -541 l0 -278 600 0 600 0 58 163 c32 89 67 196 78 237 29 109 34
291 15 584 -9 136 -16 265 -16 285 0 30 19 62 106 186 170 242 299 465 424
738 l73 157 26 -16 c14 -10 69 -52 121 -94 173 -141 265 -187 348 -176 62 8
168 59 281 135 340 229 618 570 714 877 55 173 62 237 62 534 0 343 -10 421
-70 535 -86 166 -444 719 -542 839 -80 97 -75 77 -67 311 13 333 11 383 -13
437 -31 68 -134 200 -226 292 -110 108 -223 200 -415 339 -319 232 -372 313
-462 697 -90 387 -108 499 -150 927 -36 366 -66 558 -125 788 -73 288 -155
493 -288 722 -41 71 -86 151 -100 178 -14 28 -45 73 -70 100 -78 88 -190 266
-280 446 -103 207 -115 256 -75 316 86 130 786 858 1298 1352 341 328 413 390
553 472 67 40 253 160 412 267 641 432 898 602 1055 703 280 178 590 413 846
642 251 223 338 281 429 281 103 0 206 -88 470 -404 195 -233 379 -443 487
-557 138 -146 213 -262 365 -568 125 -253 229 -405 438 -645 65 -74 216 -252
335 -395 260 -311 366 -430 685 -765 286 -300 370 -393 432 -476 l46 -62 304
-116 304 -116 152 0 c106 0 184 6 258 20 59 10 183 25 276 31 152 11 180 11
264 -5 108 -20 175 -41 204 -66 11 -9 47 -27 80 -39 141 -52 209 -103 407
-304 218 -220 324 -363 356 -478 5 -20 33 -71 61 -113 29 -42 92 -152 140
-244 158 -301 258 -442 440 -622 173 -172 300 -254 511 -333 133 -50 227 -66
429 -77 231 -12 774 -12 977 0 196 12 287 34 524 125 319 123 391 168 565 346
325 334 477 566 546 838 11 41 26 145 35 230 9 86 20 158 25 161 27 18 -188
530 -246 585 -12 11 -72 95 -133 187 -184 275 -288 387 -480 518 -173 117
-204 176 -237 446 -28 226 -56 312 -118 358 -44 33 -140 33 -267 1 -158 -40
-219 -43 -315 -13 -44 14 -105 31 -135 38 -111 26 -133 50 -150 170 -16 111
-35 133 -127 145 -75 10 -118 46 -178 146 -57 98 -129 171 -191 195 -56 21
-159 15 -235 -15 -70 -27 -189 -98 -305 -184 -190 -139 -235 -140 -247 -7 -11
121 -93 393 -239 793 -166 457 -341 873 -548 1307 -144 301 -228 495 -263 605
-94 301 -127 809 -127 1986 l0 657 58 43 c31 24 78 63 105 87 69 65 62 96 -26
108 -137 19 -142 88 -16 232 21 24 48 64 60 88 19 40 20 50 10 108 -6 34 -11
95 -11 134 0 135 -33 212 -90 212 -10 0 -29 9 -44 21 -43 34 -37 90 24 206 40
75 50 105 50 142 -1 96 -67 124 -181 78z m-12104 -7868 c4 -5 -29 -85 -73
-177 -159 -330 -169 -365 -177 -591 -7 -205 4 -292 56 -428 l32 -83 43 0 44 0
0 -79 c0 -69 6 -95 49 -212 130 -360 310 -682 515 -926 47 -56 175 -198 285
-317 675 -730 976 -1114 1157 -1480 164 -331 196 -510 245 -1366 l22 -385 145
-289 c174 -350 341 -664 463 -869 173 -292 217 -407 190 -503 -15 -57 -47 -94
-78 -94 -14 0 -64 22 -112 49 -105 60 -201 95 -346 127 -237 52 -388 166 -560
424 -175 263 -342 655 -624 1467 -185 536 -265 820 -392 1403 -56 260 -176
639 -285 905 -74 178 -231 490 -314 623 -131 209 -368 485 -764 891 -346 355
-479 502 -529 586 l-42 69 0 111 c0 108 1 112 44 210 55 125 81 163 206 304
28 31 76 90 107 131 72 96 232 266 326 346 70 60 171 120 249 149 46 16 109
19 118 4z"/>
</g>
</svg>
