<?xml version="1.0" standalone="no"?>
<!DOCTYPE svg PUBLIC "-//W3C//DTD SVG 20010904//EN"
 "http://www.w3.org/TR/2001/REC-SVG-20010904/DTD/svg10.dtd">
<svg version="1.0" xmlns="http://www.w3.org/2000/svg"
 width="846.000000pt" height="487.000000pt" viewBox="0 0 846.000000 487.000000"
 preserveAspectRatio="xMidYMid meet">

<g transform="translate(0.000000,487.000000) scale(0.100000,-0.100000)"
fill="#000000" stroke="none">
<path d="M5895 4739 c-39 -33 -81 -81 -94 -106 -24 -43 -24 -47 -11 -101 8
-32 14 -93 14 -137 0 -67 -6 -94 -35 -167 -19 -49 -39 -88 -44 -88 -6 0 -37
27 -70 61 -117 119 -244 201 -475 306 -235 108 -515 161 -775 149 -186 -8
-211 -14 -351 -90 -29 -15 -37 -15 -90 -1 -32 8 -78 15 -102 15 -49 0 -185
-25 -222 -41 -14 -6 -53 -15 -88 -20 -96 -14 -172 -57 -235 -134 l-52 -65 -71
0 c-54 0 -81 -5 -114 -23 -24 -13 -45 -27 -47 -32 -1 -6 26 -30 61 -54 35 -25
77 -62 95 -82 l31 -37 -93 -80 c-108 -94 -289 -278 -372 -377 -68 -81 -156
-216 -240 -365 -32 -58 -86 -150 -120 -205 -33 -55 -78 -139 -99 -187 -21 -48
-43 -94 -50 -102 -10 -13 -84 -12 -646 9 -349 14 -837 34 -1083 45 -247 11
-464 20 -483 20 l-34 0 0 -79 0 -80 43 -5 c23 -3 251 -12 507 -21 766 -26
1489 -54 1593 -61 78 -5 100 -10 105 -23 10 -28 80 -138 135 -213 29 -40 82
-122 117 -183 89 -155 248 -394 376 -567 101 -136 272 -404 324 -507 33 -66
120 -298 120 -321 0 -27 -6 -26 -57 16 -24 20 -47 33 -51 29 -13 -13 -5 -90
13 -125 9 -19 35 -59 57 -88 22 -30 58 -95 81 -145 37 -83 41 -100 42 -174 0
-53 -4 -86 -12 -94 -7 -7 -13 -28 -13 -47 0 -27 8 -42 42 -72 22 -21 55 -41
72 -44 34 -7 89 6 113 25 20 18 55 88 93 193 31 85 32 95 27 187 l-6 96 42 60
c23 33 55 89 72 124 16 35 30 66 32 68 1 2 21 -13 44 -33 25 -21 53 -36 68
-36 36 0 120 59 174 122 66 78 89 143 88 250 0 47 -5 97 -10 111 -12 32 -136
223 -150 232 -8 4 -9 32 -5 83 6 77 6 77 -30 123 -19 26 -71 72 -115 103 -89
62 -101 79 -124 181 -23 102 -26 119 -37 240 -11 135 -46 257 -95 336 -20 33
-34 63 -31 66 4 4 426 1 939 -5 512 -7 1028 -12 1146 -12 l213 0 63 -50 c52
-41 70 -64 104 -132 55 -110 130 -187 214 -219 56 -22 78 -24 227 -24 164 0
166 0 253 34 80 31 95 41 151 103 76 83 109 145 116 218 l5 55 693 3 692 2 0
74 0 74 -722 -6 -723 -5 -44 66 c-27 39 -62 77 -89 93 -53 34 -61 47 -69 124
-8 80 -27 95 -93 76 -26 -8 -53 -10 -65 -5 -11 4 -32 10 -47 13 -21 5 -27 13
-30 39 -2 27 -8 33 -30 35 -20 2 -32 13 -44 37 -8 18 -28 38 -44 45 -31 13
-71 -3 -139 -54 -36 -27 -51 -26 -51 4 0 48 -99 318 -175 476 -80 166 -85 180
-96 277 -7 56 -12 198 -12 316 l0 215 27 21 c32 25 33 33 4 37 -31 4 -32 22
-3 54 14 15 23 34 20 42 -3 7 -5 29 -5 49 0 26 -5 36 -20 40 -24 6 -25 25 -4
58 9 14 14 32 10 40 -11 30 -52 15 -121 -46z m-1122 -1191 c52 -62 107 -124
122 -138 15 -14 45 -63 67 -109 24 -53 60 -109 96 -149 31 -35 81 -94 110
-130 29 -36 99 -114 157 -173 58 -60 105 -114 105 -119 0 -7 -315 -10 -920
-10 -936 0 -976 2 -968 36 6 27 391 415 431 436 22 11 97 59 166 107 69 48
166 112 214 142 48 30 129 91 180 136 125 112 122 112 240 -29z m-1703 -643
c0 -3 -12 -29 -27 -58 -14 -29 -29 -65 -32 -82 -5 -24 -13 -31 -35 -33 -40 -5
-96 7 -96 20 0 17 81 108 119 133 33 22 71 32 71 20z m-20 -333 c0 -16 22 -73
49 -128 41 -83 67 -118 154 -211 210 -225 289 -338 317 -458 6 -27 15 -111 19
-185 l8 -135 61 -122 c34 -67 78 -147 97 -177 35 -55 43 -89 26 -115 -7 -12
-15 -10 -43 7 -19 12 -54 24 -78 28 -95 15 -160 105 -245 340 -73 201 -103
299 -131 434 -30 145 -89 294 -159 402 -27 40 -100 124 -163 187 -63 63 -121
125 -129 138 l-15 23 116 0 116 0 0 -28z"/>
</g>
</svg>
