<?xml version="1.0" standalone="no"?>
<!DOCTYPE svg PUBLIC "-//W3C//DTD SVG 20010904//EN"
 "http://www.w3.org/TR/2001/REC-SVG-20010904/DTD/svg10.dtd">
<svg version="1.0" xmlns="http://www.w3.org/2000/svg"
 width="3520.000000pt" height="2026.000000pt" viewBox="0 0 3520.000000 2026.000000"
 preserveAspectRatio="xMidYMid meet">

<g transform="translate(0.000000,2026.000000) scale(0.100000,-0.100000)"
fill="#000000" stroke="none">
<path d="M17100 19283 c-30 -1 -149 -7 -265 -13 -524 -27 -670 -65 -1103 -286
-285 -145 -278 -143 -482 -94 -294 72 -478 85 -720 50 -269 -38 -499 -88 -666
-145 -90 -31 -170 -49 -445 -99 -339 -62 -636 -231 -861 -490 -40 -46 -116
-138 -168 -204 l-95 -121 -217 -1 c-241 0 -336 -10 -441 -45 -119 -40 -307
-158 -307 -193 0 -23 76 -90 266 -233 182 -136 354 -293 449 -410 49 -59 56
-72 44 -83 -8 -7 -113 -98 -234 -202 -121 -104 -280 -245 -355 -314 -326 -301
-905 -890 -1190 -1210 -371 -417 -685 -884 -1185 -1760 -115 -201 -281 -486
-370 -635 -276 -460 -381 -660 -573 -1085 -123 -273 -155 -373 -173 -535 -20
-176 9 -453 58 -565 39 -88 115 -206 161 -250 76 -72 89 -93 94 -146 5 -55 34
-101 239 -390 165 -231 337 -496 481 -739 321 -540 511 -843 819 -1305 251
-377 494 -725 778 -1115 532 -731 1224 -1819 1410 -2217 97 -206 307 -750 416
-1073 53 -159 69 -260 40 -271 -25 -10 -69 15 -175 101 -170 138 -247 178
-268 139 -17 -34 -22 -118 -12 -208 27 -229 70 -322 303 -655 148 -211 324
-541 427 -802 83 -210 85 -224 85 -544 0 -293 -5 -339 -46 -394 -29 -40 -52
-147 -46 -212 8 -89 38 -144 127 -230 145 -141 283 -223 395 -235 115 -12 323
37 404 96 96 70 231 337 396 786 42 112 87 246 101 297 35 127 40 288 20 601
-9 136 -16 265 -16 285 0 30 19 62 106 186 170 242 299 465 424 738 l73 157
26 -16 c14 -10 69 -52 121 -94 173 -141 265 -187 348 -176 62 8 168 59 281
135 340 229 618 570 714 877 55 173 62 237 62 534 0 343 -10 421 -70 535 -86
166 -444 719 -542 839 -80 97 -75 77 -67 311 13 333 11 383 -13 437 -31 68
-134 200 -226 292 -110 108 -223 200 -415 339 -319 232 -372 313 -462 697 -90
387 -108 499 -150 927 -36 366 -66 558 -125 788 -73 288 -155 493 -288 722
-41 71 -86 151 -100 178 -14 28 -45 73 -70 100 -78 88 -190 266 -280 446 -103
207 -115 256 -75 316 86 130 786 858 1298 1352 341 328 413 390 553 472 67 40
253 160 412 267 665 448 898 603 1050 699 239 152 619 435 773 576 l42 40 0
2237 0 2237 -46 7 c-45 6 -338 6 -454 -1z m-5625 -7294 c4 -5 -29 -85 -73
-177 -159 -330 -169 -365 -177 -591 -7 -205 4 -292 56 -428 l32 -83 43 0 44 0
0 -79 c0 -69 6 -95 49 -212 130 -360 310 -682 515 -926 47 -56 175 -198 285
-317 675 -730 976 -1114 1157 -1480 164 -331 196 -510 245 -1366 l22 -385 145
-289 c174 -350 341 -664 463 -869 173 -292 217 -407 190 -503 -15 -57 -47 -94
-78 -94 -14 0 -64 22 -112 49 -105 60 -201 95 -346 127 -237 52 -388 166 -560
424 -175 263 -342 655 -624 1467 -185 536 -265 820 -392 1403 -56 260 -176
639 -285 905 -74 178 -231 490 -314 623 -131 209 -368 485 -764 891 -346 355
-479 502 -529 586 l-42 69 0 111 c0 108 1 112 44 210 55 125 81 163 206 304
28 31 76 90 107 131 72 96 232 266 326 346 70 60 171 120 249 149 46 16 109
19 118 4z"/>
</g>
</svg>
